<?xml version="1.0" encoding="UTF-8"?>
<svg version="1.1" viewBox="0 0 1772 1040" width="443" height="260" xmlns="http://www.w3.org/2000/svg">
<path transform="translate(0)" d="m0 0h1772v1040h-1772z" fill="#FDFDFD"/>
<path transform="translate(916,147)" d="m0 0 6 1 26 4 27 7 21 8 25 12 17 10 16 11 16 12 13 12 12 12 9 11 14 19 10 15 12 22 8 19 8 24 6 26 2 16 1 15v42l-4 27-6 24-6 18-11 25-11 20-8 12-13 18-11 13-22 22-10 8-18 13-21 13-15 8-28 11-19 6-23 5-19 3-2 1h-52l-6-2-16-2-26-6-28-10-25-12-17-10-11-7-12-9-11-9-15-14-12-13-11-13-13-19-8-13-10-19-10-26-7-23-5-24-2-16v-48l3-24 6-26 9-27 7-17 10-19 12-19 12-16 11-13 9-10 12-11 11-9 15-11 21-13 27-14 25-9 23-6 20-4 10-1z" fill="#1A60AB"/>
<path transform="translate(864,164)" d="m0 0 5 2 13 10 19 14 16 12 10 8v31l-2 62-1 49-5 10-8 13-8 17-4 7 1 6 4-5 10-13 12-17 10-14 13-18 36-51 9-12 6-10v-3l-3-1-10-13-3-4 9-4 26-7 30-8h6l2 14 4 44 1 14-9-3-9-4-4-2 1-5 6-29-8 26-2 5-4-1-16-9-9-5 12 9 13 8 2 3-10 13-13 18-16 21-13 18-11 14-5 8 14-17 13-16 30-39 12-16 2-3 9 3 12 5v3l-20 20-7 8-15 16-7 8-11 12-7 8-3 4h-2l-2 4-15 15-7 8-7 7-7 8 3 1 37 4 41 5 25 4 8 6 1 5-8 4-3 1h-14l-99-5h-17l-2 7-5-2-6-4v6h-8l-24-5-8-1h-35l-55 3h-9l-1 3h-2v2l-2 1 7 4 5 7 2 11v9l-1 3-7 1-8-1-1-1-1-13-2-5h-38l-3 3-2 8v47l2 15 16 1 1 1v10l-2 3-4 1h-13l-8-4-5-6-4-14-1-20v-20l1-19 3-10 8-9 2-1 10-1h13l-3-10-9-21-6-13 1-6 12-14 13-17 6-7h2l2 19v14l-1 24 3-17 2-15 9 3 32 14-5-4-15-8-20-9-1-2-1-9-3-9h3l11 6 24 14 21 12 6 3-11-8-11-7-9-6v-2l-5-1-15-11-11-7-23-14-9-7-3-24-5-47h65l7 1-2 6-11 24-5 12 1 5 13 12 7 7 2 1v2l4 2 14 14v2l4 2 10 9 6 5v2l6 2 9 9 8 7 5 4-30-30-8-7-26-26-8-7-12-12 4-16 8-22 2-6 5 5 11 13 8 10 11 13 9 11 12 14 11 14 14 18 16 20-4-43-6-58-5-54-2-25-16 4-34 7h-4l1-4 9-9 7-8 10-11 7-8 12-13z" fill="#D2EEFC"/>
<path transform="translate(717,269)" d="m0 0h65l7 1-2 6-11 24-5 12 1 5 13 12 7 7 2 1v2l4 2 14 14v2l4 2 10 9 6 5v2l6 2 9 9 8 7 6 5 5 5 15 14 17 16 10 9 3 4-1 6h-8l-24-5-8-1h-35l-55 3h-9l-1 3h-2v2l-2 1 7 4 5 7 2 11v9l-1 3-7 1-8-1-1-1-1-13-2-5h-38l-3 3-2 8v47l2 15 16 1 1 1v10l-2 3-4 1h-13l-8-4-5-6-4-14-1-20v-20l1-19 3-10 8-9 2-1 10-1h13l-3-10-9-21-6-13 1-6 12-14 13-17 6-7h2l2 19v14l-1 24 3-17 2-15 9 3 32 14-5-4-15-8-20-9-1-2-1-9-3-9h3l11 6 24 14 21 12 6 3-11-8-11-7-9-6v-2l-5-1-15-11-11-7-23-14-9-7-3-24z" fill="#1698CF"/>
<path transform="translate(1117,784)" d="m0 0h19l16 3 8 4 3-1 3-3 7-1 6 2 4 10 9 34v6l-12 4-7-1-6-8-7-12-2-4-4-2-9-6-6-2h-15l-8 3-10 9-6 10-3 9-1 7v15l3 15 5 12 7 10 9 6 8 3h18l10-4 12-11 9-10 3-2h6l9 6 2 4-3 6-7 6-14 14-14 8-12 4-5 1h-29l-13-4-12-6-12-11-9-11-7-15-3-10-1-7v-14l2-15 5-13 7-11 9-10 9-7 12-6 10-3z" fill="#1A61AC"/>
<path transform="translate(204,784)" d="m0 0h19l16 3 8 4 4-2 7-3 8 1 3 7 10 36 1 7-9 4-8 1-5-3-11-19-9-8-8-4-4-1h-15l-7 3-6 4-6 7-7 14-1 4v27l5 16 7 12 9 8 11 4h17l10-4 10-9 13-13 2-1h6l8 6 2 2-1 6-16 16-11 9-12 6-14 4h-29l-14-4-13-7-11-10-9-12-6-12-4-15v-25l4-16 6-11 7-10 7-7 11-7 11-5z" fill="#1A61AC"/>
<path transform="translate(410,826)" d="m0 0h54l2 1 1 6v8l-3 5-8 3 2 9 10 24 3 6 2 1 2-5 11-26 2-6v-4l-11-4-2-3-1-6v-8l5-1h47l3 1 1 12-3 7-8 4-7 8-12 23-15 30-9 19-10 19-6 10-9 8-10 4h-15l-10-4-7-8-1-3v-8l4-7 5-3h10l8 4 3 2h5l4-5 4-8v-10l-11-24-14-29-8-17-3-3-9-4-2-4v-8l2-5z" fill="#1A61AC"/>
<path transform="translate(1465,825)" d="m0 0h26l13 4 9 6 4 6 3 8 1 8 1 46 2 3 11 2 1 1v13l-2 5-4 2h-19l-10-4-8-6-5 1-8 5-13 4h-17l-9-3-10-10-4-9v-13l4-10 5-5 9-6 24-6 20-3-1-13-3-6-3-1h-10l-5 3-9 16-6 3h-8l-8-4-4-8 1-8 5-8 7-6 11-5z" fill="#1A61AC"/>
<path transform="translate(806,825)" d="m0 0h25l11 3 10 5 6 9 3 9 1 42 1 10 4 4 9 1 1 2v12l-2 5-3 2-15 1-12-3-10-7-4-1-12 7-10 3h-19l-8-3-9-8-5-10-1-9 2-9 6-10 9-6 13-4 25-5 8-1-1-12-2-7-4-1h-9l-6 3-4 7-5 9-6 3h-8l-8-4-3-4-1-3v-7l4-8 7-7 13-6z" fill="#1A61AC"/>
<path transform="translate(1340,825)" d="m0 0h21l12 3 10 6 9 9 7 14 1 3v16l-2 2h-60l-5 1 2 9 5 8 6 5 6 2h11l10-3 16-10 5 2 6 9v6l-10 9-10 6-15 6-4 1h-21l-10-3-12-7-9-8-8-14-3-8-1-6v-15l4-14 9-13 9-8 13-6z" fill="#1A61AC"/>
<path transform="translate(581,824)" d="m0 0h9l14 2 3 1h20l3 7 5 16 1 5-8 5-8 3h-4l-6-8-7-6-11-4h-8l-6 4v4l9 3 31 11 8 4 10 8 4 6 1 4v13l-4 10-6 7-16 8-4 1h-23l-12-3-6 1-7 1-6-2-3-3-5-16-5-11 3-3 13-6h5l3 4 4 7 8 6 11 4 5 1h8l7-2v-6l-5-4-13-5-22-7-12-6-7-7-3-7-1-5v-9l3-10 5-5 9-6 10-4z" fill="#1A61AC"/>
<path transform="translate(853,217)" d="m0 0h10l3 2 2 12 4 38 3 21 1 2 2-4 7 68 3 34-5-4-9-12-20-25-2-5-12-16-3-5-6-25-6-24-8-38-1-13 13-2z" fill="#1698CF"/>
<path transform="translate(696,792)" d="m0 0h8l4 1 1 32 8 1 23 1v18l-1 1-30 1v42l3 12 5 4 3 1h12l10-4h4l1 5v10l-5 6-9 4-16 2-16-1-10-4-10-9-3-5-1-4-1-59-11-1-3-3v-16l6-4 7-4 5-5 5-7 5-14z" fill="#1A61AC"/>
<path transform="translate(1254,779)" d="m0 0h7l2 6 1 117 4 4 9 3 2 7v6l-3 5h-57l-2-2-1-4v-7l2-5 10-4 3-4v-94l-11-1-3-2-1-11 2-6 9-3z" fill="#1A62AD"/>
<path transform="translate(933,779)" d="m0 0h7l2 6 1 116 2 4 11 4 1 2v11l-2 5h-54l-5-2v-13l4-4 6-3 3-1 1-4v-91l-5-2-8-2-1-1v-16l6-3z" fill="#1A62AD"/>
<path transform="translate(344,824)" d="m0 0 5 1 1 7 1 5 8-7 10-5h12l6 4 4 6 1 3v12l-5 7-6 3h-10l-8-3h-7l-2 4v45l14 2v19h-60l-2-3v-8l2-7 11-3 1-8-1-45-12-1-1-1v-16l2-2 20-4z" fill="#1A61AC"/>
<path transform="translate(1595,824)" d="m0 0h5l1 2v12l5-4h2v-2l10-6 3-1h11l6 3 4 5 2 6v9l-4 7-5 4-3 1h-8l-10-3h-7l-1 2v47l14 2v18l-1 1h-57l-3-1-1-2v-11l2-4 11-3v-53l-12-1-1-1v-17l8-2 14-3z" fill="#1A61AC"/>
<path transform="translate(750,367)" d="m0 0h2l2 19v14l-1 24 3-17 2-15 9 3 32 14-5-4-15-8-20-9-1-2-1-9-3-9h3l11 6 24 14 49 28 17 10 9 6v2h-15l-101-4-3 5-9 10-2 3-3-1-13-30-3-6 1-6 12-14 13-17z" fill="#D2EEFC"/>
<path transform="translate(1e3 360)" d="m0 0 6 1 18 8 19 9 1 2-5 11-10 28-5 11-21-2-43-5-16-2 6-7 7-8 7-7 7-8 11-11 1-2h2l2-4z" fill="#1699D0"/>
<path transform="translate(769,522)" d="m0 0 10 1 1 1v15l-2 9-7 8-7 3-8 1v56l5 1h35l3-1 1-2 1-16 1-1h14l2 1v13l-3 11-4 6-7 4-3 1h-44l-10-4-6-8-2-6-1-7-1-20v-28l2-15 2-7 5-6 4-2 9-1 7-6z" fill="#E1F1F7"/>
<path transform="translate(717,269)" d="m0 0h65l7 1-2 6-11 24-7 16-22 13-17 9-5 1-2-13z" fill="#D2EFFD"/>
<path transform="translate(723,455)" d="m0 0h43l7 4 5 7 2 11v9l-1 3-7 1-8-1-1-1-1-13-2-5h-38l-3 3-2 8v47l2 15 16 1 1 1v10l-2 3-4 1h-13l-8-4-5-6-4-14-1-20v-20l1-19 3-10 8-9 2-1z" fill="#E1F1F7"/>
<path transform="translate(834,467)" d="m0 0h11l3 3 9 27 4 14h3l5-14 3-11 3-12 3-6 1-1h10l2 1-2 10-15 43-6 16-5 9-8 4-10 1v68l-1 1h-11l-1-1v-79l2-2 18-1 4-1v-8l-11-30-9-22z" fill="#E1F1F7"/>
<path transform="translate(946,557)" d="m0 0h34l7 3 3 5 1 12v40l-1 2-10 1-2-1v-4l-7 2-1 2-9 1h-18l-6-3-3-6v-15l3-6 5-5 3-1h25l7 1-1-17-9-1h-15l-2 8-2 1h-7l-4-4v-7l6-7z" fill="#E0F1F7"/>
<path transform="translate(874,557)" d="m0 0h36l5 3 4 7 1 5v19l-5 2-39 1v8l2 7 3 1h22l4-1 1-8 1-1 10 1 1 4-2 8-4 5-2 1-13 1h-19l-9-1-5-8-3-12v-25l2-9 6-7z" fill="#E0F1F7"/>
<path transform="translate(983,247)" d="m0 0 5 1 10 13 3 3-5 10-8 10-14 20-24 34-26 36-9 13-2-1 1-8 1-3h2l-1-5 7-10 6-13 3-4 1-4-2-2 6-11 9-15 12-21 10-17 6-11 7-13h2z" fill="#1698CF"/>
<path transform="translate(1014,467)" d="m0 0h30l8 2 2 2v59h-9l-3-4-10 4-2 1h-18l-6-4-3-7v-16l3-6 4-3 3-1h24l6 1-1-17-4-1-19-1-1 8-2 2h-7l-4-3v-8l4-7z" fill="#E0F1F7"/>
<path transform="translate(917,467)" d="m0 0h17l9 2 4 4v11l-3 2-7-1-3-7-3-1h-19l-2 1v11l10 2 19 3 8 3 2 5v19l-4 8-4 2-6 1h-20l-12-2-5-5-1-11 2-3h7l3 3v6h28v-14l-30-3-7-3-2-5v-20l3-6 1-1z" fill="#E0F1F7"/>
<path transform="translate(795,467)" d="m0 0h7l3 3 1 4 5-2 4-4 3-1h9l1 2v10l-4 1-19 1 1 49 8 7 4 11 1 12-2 2-8 1-7-1-2-14-2-3-13-1-2-1v-8l2-5 5-2h4v-60z" fill="#D2EFFC"/>
<path transform="translate(769,522)" d="m0 0 10 1 1 1v15l-1 7-4-1-1-2-5 5-10 6-2 3h-2l-1 2h-6l-6 8-1 4v31l1 3 1 10 3 9 5 4 7 2 9 1 34 1v1h-44l-10-4-6-8-2-6-1-7-1-20v-28l2-15 2-7 5-6 4-2 9-1 7-6z" fill="#D2EFFD"/>
<path transform="translate(970,455)" d="m0 0 7 1 1 1v11l14 1 1 1v7l-2 1-13 1 1 41 13 1v8l-4 2h-16l-4-4-1-3-1-44-9-2-2-2 1-6 8-2h3v-12z" fill="#E0F1F7"/>
<path transform="translate(984,573)" d="m0 0 3 1h3l1 3v40l-1 2-10 1-2-1v-4l-7 2-1 2-9 1h-18l-6-3-3-6v-15l3-6 5-5 3-1h25l8 3-2 5-23 1-5 1-1 16h18l12-2 2-1 2 1v2h3v2l4-1-1-7-1-4 1-9-1-3-2-8z" fill="#DFF1F7"/>
<path transform="translate(1012,557)" d="m0 0h10l3 6 3-1 3-4 3-1h11l2 2v8l-3 3-20 1v47l-2 2h-10l-1-1v-61z" fill="#DEF1F8"/>
<path transform="translate(1075,455)" d="m0 0 8 1v73l-5 2h-8v-75z" fill="#E2F2F7"/>
<path transform="translate(1052,485)" d="m0 0 2 1v44h-9l-3-4-10 4-2 1h-18l-6-4-1-4 2-5h4l2 2h10l20-2 4-10h2v-2h2v-5l-1 4h-2l-1 2-1-1v-16h3z" fill="#F9FCFD"/>
<path transform="translate(942,496)" d="m0 0 5 1 2 5v19l-4 8-4 2-6 1h-20l-12-2-5-5-1-11 2-3h7l3 3v7l24 1 9-2 1-19z" fill="#FCFDFD"/>
<path transform="translate(1552)" d="m0 0h220v6h-16l-68-2-103-2-33-1z" fill="#1A68B0"/>
<path transform="translate(867,596)" d="m0 0h5l3 9v3l6 2h22l4-1 1-8 1-1 10 1 1 4-2 8-4 5-2 1-13 1h-19l-9-1-5-8v-13z" fill="#F7FBFD"/>
<path transform="translate(906,490)" d="m0 0 14 1 19 3 4 2 1 6-1 18-3 2-10 1-16-1-5-1v-1h28v-14l-30-3-4-3-2-6 1-2z" fill="#E0F1F7"/>
<path transform="translate(1056,243)" d="m0 0h1l5 50v4l-9-3-9-4-4-2 1-5 6-28 2-1 1 6 4-2 1-2z" fill="#D2EFFD"/>
<path transform="translate(786,276)" d="m0 0 3 1-10 28-2 10 17 17 8 7 26 26 8 7 25 25-1 2-11-11-8-7-4-4-5-2-13-13-7-5-7-8-9-9-2-1v-2l-4-2-13-13-7-6 1-6 13-30z" fill="#1A66B0"/>
<path transform="translate(818,467)" d="m0 0h9l1 2v10l-4 1-20 1v47h-4l-2-10v-23l2-11v-2l-4-6v-8h8l2 6 5-2 4-4z" fill="#FAFCFD"/>
<path transform="translate(1014,467)" d="m0 0h30l8 2 1 1v12l-4 1 1-3-3-2-3 1v-2l-25-1-1 8-2 2h-7l-4-3v-8l4-7z" fill="#DEF1F8"/>
<path transform="translate(1478,884)" d="m0 0h10l2 4-1 11-4 5-6 3-11 1-5-3-2-4v-7l5-6z" fill="#FAFCFD"/>
<path transform="translate(819,884)" d="m0 0h10l2 4-1 10-3 5-8 4-10 1-5-3-2-4v-8l5-5z" fill="#FAFCFD"/>
<path transform="translate(950,593)" d="m0 0h27v14l-6 3-6 1h-15l-3-1-1-7 2-9z" fill="#1A62AD"/>
<path transform="translate(1348,843)" d="m0 0h8l6 3 5 6 1 9-2 1h-27l-5-1 1-6 6-8z" fill="#F9FCFD"/>
<path transform="translate(834,467)" d="m0 0h11v1h-8l3 8 4 9 9 26 3 9 4 9-1 7-5 4-9 2-2-1-9-1 1 13 2 1v11h-1v9l1 1v7h-1l-1 13v22l5 1 4 2h-11l-1-1v-79l2-2 18-1 4-1v-8l-11-30-9-22z" fill="#D3EFFC"/>
<path transform="translate(877,568)" d="m0 0h29l1 2v14h-30l-1-2v-13z" fill="#1A65AF"/>
<path transform="translate(1018,503)" d="m0 0h25l1 1v9l-2 5-5 2-21 1-2-1v-11l1-5z" fill="#1A64AE"/>
<path transform="translate(837,468)" d="m0 0h10l4 10 10 33v11l-3 3-4-7-3-10-10-29-4-7z" fill="#FBFDFD"/>
<path transform="translate(972,485)" d="m0 0 5 2v33l15 1v8l-4 2h-16l-2-2-1-14 1-26z" fill="#FCFDFD"/>
<path transform="translate(723,455)" d="m0 0h43l3 2h-14l-13 1-2 2-5-1v-2l-11 1h-7l-7 4-2 2-3 6-2 11v46l2 15 5 11 5 3h18l1-2 1-9h1v10l-2 3-4 1h-13l-8-4-5-6-4-14-1-20v-20l1-19 3-10 8-9 2-1z" fill="#D2EFFD"/>
<path transform="translate(1016,577)" d="m0 0 1 2 5-1 1 3v38h-9l-1-1v-20l1-18z" fill="#FEFEFE"/>
<path transform="translate(880,468)" d="m0 0h11l-2 10-13 37-3 1-2-2 2-10v-7l5-14 2-3 1-6h-2z" fill="#FAFCFD"/>
<path transform="translate(984,573)" d="m0 0 3 1h3l1 3v40l-1 2-10 1-2-1v-4l-7 2-1 2h-4l-2-4 1-3 6-1 3 1 1-3 4-2 2 1v2h3v2l4-1-1-7-1-4 1-9-1-3-2-8z" fill="#F0F9FD"/>
<path transform="translate(926,468)" d="m0 0h15l5 3 1 2v11l-3 2-7-1-3-7-3-1-20-1 4-6z" fill="#F8FCFD"/>
<path transform="translate(754,370)" d="m0 0 2 2 2 5 1 11 5 1 16 8 19 10v3l-36-16-4-1-4 26-2 6-1-3 1-22v-25z" fill="#1879BC"/>
<path transform="translate(804,531)" d="m0 0 7 3 4 5 3 9 1 12-2 2-8 1-6-2 1-13 2-3h2l-4-12z" fill="#E1F1F7"/>
<path transform="translate(843,564)" d="m0 0h1l1 55h-9l-2-2v-8l2-3 1 1 2-31 1-10z" fill="#FDFDFD"/>
<path transform="translate(867,596)" d="m0 0h5l3 9v3l6 2 1 1 13 1 1 2h-2v2l-14 2h-10l-4-7v-13z" fill="#FBFDFD"/>
<path transform="translate(1034,557)" d="m0 0h11l2 2v8l-1 2-24 1-6-4v-2l10 1v-2l5-5z" fill="#F9FCFD"/>
<path transform="translate(879,467)" d="m0 0h10v1h-9l-1 6h2v6l-3 5-4 12-3 5-4 11-1 10-2 1v-6h-2l-1-6 3-1 5-14 3-11 3-12 3-6z" fill="#D2EFFC"/>
<path transform="translate(899,511)" d="m0 0h7l2 1-1 3-6-1v9l2 3 8 2h21l8 1 3-4 3 1-1 3-4 2-6 1h-20l-12-2-5-5-1-11z" fill="#DDF1F9"/>
<path transform="translate(911,374)" d="m0 0 4 1-1 13-11 15-3 3-2-4 1-5 10-19z" fill="#196BB3"/>
<path transform="translate(1044,468)" d="m0 0h6l3 2v12l-4 1 1-3-3-2-3 1v-2l-9-1-2-1 2-6z" fill="#FBFCFD"/>
<path transform="translate(1053,471)" d="m0 0h1v15l-3 1-2 6-2-3h-2v6l-4 1-6-1h-25l3-2h24l6 1-1-18h2v2l5-2 2 4v1h2z" fill="#D2EFFC"/>
<path transform="translate(876,584)" d="m0 0h35l1 8h-13v-2l-4-1h-15l-1-3-3-1z" fill="#FEFEFE"/>
<path transform="translate(906,490)" d="m0 0 14 1 6 2-1 3-4 1h-7l-4 4h-6l-3-7 1-2z" fill="#FCFDFD"/>
<path transform="translate(1070,456)" d="m0 0h2l1 3-1 66-1 6h-1z" fill="#D2EFFD"/>
<path transform="translate(802,597)" d="m0 0h14v1l-12 1v14l-4 7h-37l-5-2 3-1h35l3-1 1-2 1-16z" fill="#D2EFFD"/>
<path transform="translate(976,567)" d="m0 0 4 2 1 9v9l-2 3 1 3v12l-3 4h-5l4-2 1-14h-24v-1l23-1 1-4-3-2h3z" fill="#D2EFFC"/>
<path transform="translate(874,557)" d="m0 0h36v1l-25 1-13 1-3 3-3 12v33l-2-4-1-5v-25l2-9 6-7z" fill="#D2EFFD"/>
<path transform="translate(758,386)" d="m0 0 1 2 5 1 16 8 19 10v3l-36-16-4-2v-2z" fill="#1699D0"/>
<path transform="translate(1e3 333)" d="m0 0h2l-2 4-11 14-8 10-14 17-5 5 2-4 4-6 13-17 14-19z" fill="#1699D0"/>
<path transform="translate(971,609)" d="m0 0 4 1-1 2h-7l-2 4 1 3-5 1h-18v-1l6-2 4-1-1-5z" fill="#DFF1F7"/>
<path transform="translate(1012,557)" d="m0 0h10v1l-8 1v59l8 1v1h-10l-1-1v-61z" fill="#D2EFFC"/>
<path transform="translate(905,609)" d="m0 0h2l-1 3-6 3 3 4-4 1h-19l-9-1v-1l15-2h8l1-3-13-1v-1l21-1z" fill="#DDF1F8"/>
<path transform="translate(1057,279)" d="m0 0h2v4h2l1 14-12-4 1-7 4-6z" fill="#DFF1F8"/>
<path transform="translate(936,608)" d="m0 0h6l1 3h9l1 5-5 3h-8l-4-4z" fill="#FCFDFD"/>
<path transform="translate(984,573)" d="m0 0 3 1h3v37l-2-2-2-9 1-9-1-3-2-8z" fill="#FEFEFE"/>
<path transform="translate(939,349)" d="m0 0 1 3-11 15-11 16h-2l2-6 8-14 1-3 5-5 4-2v-2z" fill="#1A66AF"/>
<path transform="translate(961,477)" d="m0 0 7 1 1 1 1 49-2-1-1-3-1-44-6-1z" fill="#D2EFFC"/>
<path transform="translate(769,522)" d="m0 0 10 1v7h-9l-8 1 2-6z" fill="#DFF1F7"/>
<path transform="translate(910,437)" d="m0 0 7 2 4 5v8l-5-2-8-10-1-2z" fill="#E0F1F7"/>
<path transform="translate(1054,241)" d="m0 0 2 1v14l-5 5-3-3 3-12z" fill="#E2F2F7"/>
<path transform="translate(937,506)" d="m0 0 3 1v11l-4 4-6 1-16-1-5-1v-1h28z" fill="#D5EFFB"/>
<path transform="translate(958,585)" d="m0 0h16l4 2-2 5h-11l-1-3h2v-2h-9z" fill="#EAF5F9"/>
<path transform="translate(1047,251)" d="m0 0 1 4-6 28-2 5-4-3 3-9z" fill="#1784C3"/>
<path transform="translate(731,467)" d="m0 0 30 1 4 2v13l1 6-3-1-1-13-2-5h-40v-2z" fill="#D2EFFD"/>
<path transform="translate(1053,471)" d="m0 0h1v15l-3 1-2 6-3-3-2-11 5-2 2 4v1h2z" fill="#E3F2F7"/>
<path transform="translate(902,468)" d="m0 0h15v1l-14 1-2 3v23l5 6-5-1-3-6v-20l3-6z" fill="#D2EFFD"/>
<path transform="translate(1051,499)" d="m0 0h1v8l-3-1v2h-2l-1 6-3 5-2-1 2-5v-9l-20-1v-1h21l1 4 4-2z" fill="#D7F0FA"/>
<path transform="translate(886,358)" d="m0 0 4 1 2 7v5l-1 3v5l-1-2h-2z" fill="#E2F2F7"/>
<path transform="translate(970,455)" d="m0 0 7 1 1 5-4 4-5-2-1-6z" fill="#FAFCFD"/>
<path transform="translate(796,476)" d="m0 0 4 4 2 4h-2l-1 11-1 23h-1z" fill="#E2F2F7"/>
<path transform="translate(978,376)" d="m0 0 1 3-6 8-3 3-5-1 2-4 3-4h3l1-3z" fill="#E1F1F7"/>
<path transform="translate(1e3 333)" d="m0 0h2l-2 4-11 14-3 1 1-4 9-12z" fill="#1788C5"/>
<path transform="translate(918,571)" d="m0 0 2 1v19h-4l2-1-3-10z" fill="#F4FAFC"/>
<path transform="translate(920,690)" d="m0 0 4 1-3 1-1 3-3-1v-2h-45v-1h47z" fill="#D5EFFB"/>
<path transform="translate(878,472)" d="m0 0 1 2h2v6l-3 5-2 6h-1l1-11z" fill="#E2F2F7"/>
<path transform="translate(754,370)" d="m0 0 2 2 2 5v8l-3-2-2 3v-11z" fill="#1699D0"/>
<path transform="translate(938,589)" d="m0 0 1 3-3 12v9l-2-2v-15l3-6z" fill="#D2EFFD"/>
<path transform="translate(1042,273)" d="m0 0 1 4-2 7-2 4-3-3 3-9z" fill="#1877BA"/>
<path transform="translate(822,358)" d="m0 0 4 2 14 14h-3l-7-7-8-7z" fill="#DEF1F8"/>
<path transform="translate(1050,495)" d="m0 0 2 3-2 6-2 1-1 2-1-1v-8l4-1z" fill="#F3F9FB"/>
<path transform="translate(1080,524)" d="m0 0h2l-1 6-7 1 2-5z" fill="#F8FCFD"/>
<path transform="translate(967,456)" d="m0 0 2 1v12l-1 1h-10v-1l9-1z" fill="#D2EFFC"/>
<path transform="translate(778,478)" d="m0 0h1v11l-7 1v-2h3l1-4z" fill="#F6FBFD"/>
<path transform="translate(736,545)" d="m0 0h3l-1 15-1-3h-2z" fill="#1699D0"/>
<path transform="translate(1007,269)" d="m0 0 5 2 8 5-1 3-11-8z" fill="#1782C1"/>
<path transform="translate(1e3 333)" d="m0 0h2l-2 4-2 3-6 3 2-5z" fill="#1975B9"/>
<path transform="translate(816,555)" d="m0 0 3 1-1 5-5 1 2-5z" fill="#F6FBFD"/>
<path transform="translate(872,520)" d="m0 0 1 4-2 6h-2l-1-7h3z" fill="#F6FBFD"/>
</svg>
